<svg width="78" height="67" viewBox="0 0 78 67" fill="none" xmlns="http://www.w3.org/2000/svg">
<path d="M25.4124 29.0646C25.3916 29.5814 25.4706 30.0976 25.6464 30.5922C25.8149 31.0192 26.029 31.4319 26.286 31.825C26.3729 31.9413 26.4214 32.0756 26.4264 32.2136C26.4142 32.3193 26.3723 32.4208 26.3044 32.5094C26.2364 32.5981 26.1445 32.6713 26.0364 32.7228L24.7884 33.433C24.6345 33.5313 24.4496 33.5874 24.258 33.5938C24.1454 33.5897 24.035 33.5662 23.9332 33.5248C23.8313 33.4834 23.7402 33.4248 23.6652 33.3526C23.3922 33.1115 23.1563 32.8413 22.9632 32.5486C22.7604 32.2672 22.5576 31.9322 22.3392 31.557C21.6355 32.3048 20.7434 32.9057 19.73 33.3142C18.7167 33.7227 17.6085 33.9283 16.4892 33.9154C15.7598 33.9544 15.0287 33.8665 14.3398 33.657C13.6509 33.4475 13.0183 33.1206 12.48 32.696C11.9833 32.2609 11.5966 31.7423 11.3442 31.1727C11.0919 30.6031 10.9793 29.9949 11.0136 29.3862C10.984 28.7213 11.1317 28.0593 11.4453 27.4509C11.7589 26.8424 12.2302 26.3036 12.8232 25.8754C14.2053 24.931 15.9424 24.4543 17.706 24.5354C18.4106 24.5415 19.114 24.5863 19.812 24.6694C20.5452 24.7632 21.372 24.8838 22.1052 25.0446V23.785C22.2088 22.8213 21.8733 21.8606 21.1692 21.105C20.2475 20.4898 19.086 20.202 17.9244 20.301C17.199 20.3057 16.4767 20.3822 15.7716 20.5288C15.0378 20.6786 14.3181 20.8757 13.6188 21.1184C13.3984 21.2082 13.1685 21.28 12.9324 21.3328C12.829 21.346 12.7238 21.346 12.6204 21.3328C12.3396 21.3328 12.1992 21.1452 12.1992 20.7968V19.9526C12.1799 19.7443 12.2286 19.5355 12.3396 19.3496C12.4879 19.1955 12.6745 19.0719 12.8856 18.9878C13.6977 18.6611 14.5438 18.4008 15.4128 18.2106C16.4329 17.9909 17.4812 17.8829 18.5328 17.889C20.407 17.7311 22.2784 18.2124 23.7432 19.229C24.3367 19.7973 24.7893 20.4634 25.0736 21.1868C25.3579 21.9101 25.4678 22.6756 25.3968 23.4366L25.4124 29.0646ZM17.316 31.6642C18.0177 31.6617 18.7139 31.5575 19.3752 31.356C20.1062 31.1392 20.7575 30.7601 21.2628 30.2572C21.5837 29.9443 21.8183 29.5733 21.9492 29.1718C22.0834 28.6846 22.1463 28.185 22.1364 27.6844V26.9608C21.5247 26.8354 20.9048 26.7415 20.28 26.6794C19.6591 26.6113 19.034 26.5755 18.408 26.5722C17.3558 26.5014 16.3077 26.7478 15.444 27.269C15.1127 27.5087 14.8512 27.8117 14.6806 28.1538C14.5099 28.4958 14.4348 28.8674 14.4612 29.2388C14.4346 29.5693 14.4858 29.901 14.6118 30.2141C14.7378 30.5272 14.9359 30.8153 15.1944 31.0612C15.4841 31.2772 15.8208 31.4417 16.1849 31.5452C16.5491 31.6487 16.9335 31.6892 17.316 31.6642V31.6642ZM33.3372 33.5C33.0689 33.5186 32.8008 33.4622 32.5728 33.3392C32.3536 33.1597 32.2062 32.9251 32.1516 32.6692L27.4716 19.4166C27.389 19.2032 27.3315 18.9833 27.3 18.76C27.2925 18.7039 27.2999 18.6471 27.3216 18.5938C27.3432 18.5404 27.3786 18.492 27.4251 18.4521C27.4716 18.4121 27.528 18.3817 27.5901 18.3631C27.6521 18.3445 27.7183 18.3382 27.7836 18.3446H29.7492C30.0226 18.325 30.296 18.3814 30.5292 18.5054C30.7305 18.6995 30.8701 18.9349 30.9348 19.1888L34.32 30.4984L37.44 19.1754C37.4904 18.92 37.6258 18.6826 37.83 18.492C38.0689 18.3678 38.3473 18.3115 38.6256 18.3312H40.1856C40.4688 18.3123 40.7519 18.3684 40.9968 18.492C41.1953 18.6843 41.3253 18.9215 41.3712 19.1754L44.4912 30.6458L47.9388 19.1754C48.008 18.9201 48.1531 18.6847 48.36 18.492C48.5923 18.3661 48.8665 18.3096 49.14 18.3312H50.9964C51.0632 18.3244 51.1309 18.3309 51.1943 18.3502C51.2577 18.3696 51.3151 18.4012 51.3619 18.4427C51.4087 18.4842 51.4437 18.5344 51.4642 18.5895C51.4847 18.6445 51.4901 18.7029 51.48 18.76C51.4863 18.8537 51.4863 18.9477 51.48 19.0414L51.3396 19.4568L46.488 32.696C46.4334 32.9519 46.286 33.1865 46.0668 33.366C45.8185 33.4937 45.5254 33.5412 45.24 33.5H43.68C43.3944 33.5227 43.1084 33.4613 42.8688 33.3258C42.6618 33.1332 42.5308 32.8893 42.4944 32.629L39.3744 21.6008L36.2544 32.629C36.2069 32.8892 36.0713 33.1315 35.8644 33.3258C35.6307 33.4613 35.3495 33.5229 35.0688 33.5H33.3372ZM58.9524 33.9556C57.902 33.9578 56.8549 33.8544 55.8324 33.6474C55.0318 33.5057 54.2558 33.276 53.5236 32.964C53.2667 32.8623 53.0537 32.6935 52.9152 32.4816C52.8369 32.3295 52.7945 32.1655 52.7904 31.9992V31.1282C52.7904 30.7798 52.9464 30.5922 53.2428 30.5922C53.3667 30.5734 53.4934 30.5734 53.6172 30.5922L54.1164 30.7664C54.8247 31.0292 55.5615 31.2312 56.316 31.3694C57.097 31.502 57.8911 31.5693 58.6872 31.5704C59.7018 31.6211 60.7125 31.4261 61.6044 31.0076C61.9213 30.8537 62.1868 30.6324 62.3753 30.3648C62.5639 30.0973 62.6691 29.7926 62.6808 29.48C62.6871 29.26 62.642 29.0411 62.5483 28.8363C62.4545 28.6314 62.3139 28.4448 62.1348 28.2874C61.5546 27.8651 60.8726 27.5585 60.138 27.3896L57.2364 26.599C56.0163 26.3081 54.9281 25.7052 54.1164 24.8704C53.4464 24.1648 53.0678 23.2882 53.04 22.378C53.0207 21.7149 53.2036 21.0589 53.5704 20.4752C53.9442 19.9535 54.4315 19.4986 55.0056 19.1352C55.6269 18.7318 56.3306 18.4318 57.0804 18.2508C57.8969 18.0498 58.7427 17.9506 59.592 17.956C60.0405 17.9516 60.4888 17.974 60.9336 18.023C61.386 18.023 61.8228 18.1436 62.2284 18.224C62.6134 18.2956 62.9935 18.3851 63.3672 18.492C63.6527 18.5685 63.9294 18.6671 64.194 18.7868C64.4268 18.8951 64.6333 19.0406 64.8024 19.2156C64.9257 19.3836 64.9856 19.5801 64.974 19.7784V20.5824C64.974 20.9442 64.818 21.1318 64.5216 21.1318C64.249 21.1 63.985 21.0275 63.7416 20.9174C62.5318 20.4652 61.2232 20.2413 59.904 20.2608C58.9861 20.2191 58.0715 20.3854 57.252 20.7432C57.0068 20.8884 56.8009 21.0771 56.6482 21.2967C56.4955 21.5163 56.3996 21.7616 56.367 22.0158C56.3345 22.2701 56.366 22.5273 56.4595 22.7702C56.553 23.013 56.7062 23.2358 56.9088 23.4232C57.5556 23.8701 58.3053 24.1944 59.1084 24.3746L61.932 25.1518C63.1452 25.4112 64.2351 25.987 65.052 26.8C65.6666 27.4868 65.9912 28.3326 65.9724 29.1986C66.0018 29.8808 65.847 30.5596 65.52 31.1818C65.13 31.7753 64.5984 32.2913 63.96 32.696C63.2985 33.131 62.5468 33.4538 61.7448 33.6474C60.8383 33.8768 59.8974 33.9897 58.9524 33.9824V33.9556Z" fill="white"/>
<path fill-rule="evenodd" clip-rule="evenodd" d="M62.712 42.3038C56.16 46.4712 46.644 48.6822 38.4384 48.6822C27.4948 48.727 16.9255 45.2627 8.79844 38.9672C8.19004 38.4848 8.79844 37.8416 9.46924 38.2034C18.4952 42.6364 28.712 44.969 39.1092 44.9704C46.8892 44.9255 54.582 43.5593 61.7449 40.9504C62.8681 40.5886 63.804 41.6204 62.712 42.3038Z" fill="#FF9900"/>
<path fill-rule="evenodd" clip-rule="evenodd" d="M65.5199 39.6238C64.6775 38.6992 59.9663 39.195 57.8447 39.4094C57.2051 39.4764 57.1115 38.994 57.6887 38.6456C61.4483 36.381 67.5947 37.0376 68.3123 37.788C69.0299 38.5384 68.1251 43.8582 64.5995 46.3908C64.0691 46.7794 63.5543 46.5784 63.7883 46.0558C64.5215 44.354 66.2843 40.5484 65.5199 39.6238Z" fill="#FF9900"/>
</svg>
