<svg width="190" height="204" viewBox="0 0 190 204" fill="none" xmlns="http://www.w3.org/2000/svg">
<g filter="url(#filter0_d_24_34)">
<rect x="11.5" y="2.5" width="169" height="191" rx="9.5" fill="#D9D9D9" stroke="#FF9900" stroke-width="5"/>
<rect x="11.5" y="112.5" width="169" height="81" fill="#D9D9D9" stroke="#FF9900" stroke-width="5"/>
<path d="M74.7594 160.298L74.0115 160.477C73.9476 160.114 73.8326 159.805 73.6664 159.55C73.5002 159.29 73.2701 159.092 72.976 158.955C72.6863 158.815 72.3219 158.744 71.883 158.744C71.1458 158.744 70.5172 158.928 69.9973 159.294C69.4775 159.661 69.1706 160.134 69.0769 160.713C69.0002 161.173 69.0897 161.553 69.3453 161.851C69.601 162.149 70.0336 162.377 70.6429 162.535L72.1003 162.912C72.8418 163.104 73.3723 163.419 73.6919 163.858C74.0158 164.297 74.1245 164.834 74.0179 165.469C73.9327 166.01 73.709 166.487 73.3468 166.901C72.9888 167.31 72.5328 167.629 71.9789 167.859C71.4249 168.089 70.807 168.205 70.1252 168.205C69.2047 168.205 68.4846 167.989 67.9647 167.559C67.4448 167.124 67.1657 166.504 67.1273 165.699L67.9007 165.545C67.9306 166.18 68.1394 166.664 68.5272 166.996C68.915 167.325 69.4668 167.489 70.1827 167.489C70.9966 167.489 71.6848 167.295 72.2473 166.907C72.8098 166.519 73.1401 166.025 73.2381 165.424C73.3105 164.977 73.2275 164.602 72.9888 164.299C72.7502 163.996 72.3496 163.775 71.7871 163.634L70.2978 163.251C69.5222 163.05 68.9661 162.731 68.6294 162.292C68.2971 161.849 68.1841 161.308 68.2907 160.668C68.3801 160.148 68.5932 159.69 68.9299 159.294C69.2708 158.898 69.7012 158.589 70.2211 158.367C70.7409 158.146 71.3141 158.035 71.9405 158.035C72.78 158.035 73.4299 158.233 73.8901 158.629C74.3503 159.021 74.6401 159.577 74.7594 160.298ZM81.4023 158.182L81.2809 158.879H76.9982L77.1133 158.182H81.4023ZM78.9478 155.83H79.7212L78.0977 165.68C78.0295 166.08 78.0508 166.408 78.1616 166.664C78.2766 166.915 78.4492 167.103 78.6793 167.227C78.9137 167.346 79.18 167.406 79.4783 167.406C79.6104 167.406 79.7298 167.395 79.8363 167.374C79.9428 167.348 80.0494 167.32 80.1559 167.29L80.2262 168C80.0941 168.047 79.9535 168.085 79.8043 168.115C79.6552 168.145 79.4826 168.16 79.2866 168.16C78.8775 168.16 78.5067 168.068 78.1744 167.885C77.8462 167.702 77.5969 167.435 77.4265 167.086C77.2603 166.737 77.2198 166.315 77.305 165.82L78.9478 155.83ZM85.2344 168.211C84.6676 168.211 84.1669 168.098 83.7322 167.872C83.3018 167.646 82.9801 167.316 82.767 166.881C82.554 166.447 82.4964 165.918 82.5945 165.296C82.6669 164.887 82.8011 164.527 82.9972 164.216C83.1932 163.905 83.4616 163.636 83.8026 163.411C84.1435 163.185 84.5611 162.999 85.0554 162.854C85.554 162.705 86.1357 162.59 86.8004 162.509C87.3118 162.45 87.7678 162.39 88.1683 162.33C88.5689 162.271 88.8928 162.179 89.1399 162.055C89.3871 161.932 89.532 161.746 89.5746 161.499L89.6385 161.09C89.7578 160.379 89.6364 159.812 89.2741 159.39C88.9119 158.964 88.3345 158.751 87.5419 158.751C86.843 158.751 86.2166 158.908 85.6626 159.224C85.1087 159.535 84.6953 159.929 84.4226 160.406L83.745 160.131C84.0092 159.663 84.3438 159.273 84.7486 158.962C85.1577 158.651 85.6051 158.418 86.0909 158.265C86.581 158.112 87.0795 158.035 87.5866 158.035C88.0256 158.035 88.4347 158.097 88.8139 158.22C89.1932 158.344 89.517 158.531 89.7855 158.783C90.0582 159.034 90.2521 159.356 90.3672 159.748C90.4865 160.136 90.4993 160.6 90.4055 161.141L89.2678 168H88.4879L88.7884 166.229H88.7308C88.5007 166.596 88.2109 166.93 87.8615 167.233C87.5163 167.531 87.1222 167.77 86.679 167.949C86.2358 168.124 85.7543 168.211 85.2344 168.211ZM85.3814 167.489C85.995 167.489 86.5661 167.339 87.0945 167.041C87.6271 166.739 88.0746 166.325 88.4368 165.801C88.8033 165.277 89.0398 164.683 89.1463 164.018L89.3956 162.573C89.2805 162.658 89.125 162.735 88.929 162.803C88.733 162.867 88.5135 162.925 88.2706 162.976C88.032 163.023 87.7827 163.065 87.5227 163.104C87.267 163.138 87.0178 163.17 86.7749 163.2C86.0462 163.285 85.4432 163.417 84.9659 163.596C84.4886 163.771 84.12 164.001 83.8601 164.286C83.6044 164.572 83.4403 164.917 83.3679 165.322C83.2614 165.991 83.3977 166.519 83.777 166.907C84.1605 167.295 84.6953 167.489 85.3814 167.489ZM97.6445 158.182L97.5231 158.879H93.2404L93.3555 158.182H97.6445ZM95.19 155.83H95.9634L94.3398 165.68C94.2717 166.08 94.293 166.408 94.4038 166.664C94.5188 166.915 94.6914 167.103 94.9215 167.227C95.1559 167.346 95.4222 167.406 95.7205 167.406C95.8526 167.406 95.9719 167.395 96.0785 167.374C96.185 167.348 96.2915 167.32 96.3981 167.29L96.4684 168C96.3363 168.047 96.1957 168.085 96.0465 168.115C95.8974 168.145 95.7248 168.16 95.5288 168.16C95.1197 168.16 94.7489 168.068 94.4165 167.885C94.0884 167.702 93.8391 167.435 93.6687 167.086C93.5025 166.737 93.462 166.315 93.5472 165.82L95.19 155.83ZM106.242 160.298L105.494 160.477C105.43 160.114 105.315 159.805 105.149 159.55C104.983 159.29 104.752 159.092 104.458 158.955C104.169 158.815 103.804 158.744 103.365 158.744C102.628 158.744 102 158.928 101.48 159.294C100.96 159.661 100.653 160.134 100.559 160.713C100.483 161.173 100.572 161.553 100.828 161.851C101.083 162.149 101.516 162.377 102.125 162.535L103.583 162.912C104.324 163.104 104.855 163.419 105.174 163.858C105.498 164.297 105.607 164.834 105.5 165.469C105.415 166.01 105.191 166.487 104.829 166.901C104.471 167.31 104.015 167.629 103.461 167.859C102.907 168.089 102.289 168.205 101.608 168.205C100.687 168.205 99.967 167.989 99.4471 167.559C98.9272 167.124 98.6481 166.504 98.6097 165.699L99.3832 165.545C99.413 166.18 99.6218 166.664 100.01 166.996C100.397 167.325 100.949 167.489 101.665 167.489C102.479 167.489 103.167 167.295 103.73 166.907C104.292 166.519 104.623 166.025 104.721 165.424C104.793 164.977 104.71 164.602 104.471 164.299C104.233 163.996 103.832 163.775 103.27 163.634L101.78 163.251C101.005 163.05 100.449 162.731 100.112 162.292C99.7795 161.849 99.6665 161.308 99.7731 160.668C99.8626 160.148 100.076 159.69 100.412 159.294C100.753 158.898 101.184 158.589 101.703 158.367C102.223 158.146 102.797 158.035 103.423 158.035C104.262 158.035 104.912 158.233 105.373 158.629C105.833 159.021 106.123 159.577 106.242 160.298ZM110.411 164.184L110.526 163.532C110.616 162.999 110.752 162.55 110.935 162.183C111.123 161.817 111.372 161.495 111.683 161.218C111.994 160.937 112.38 160.656 112.84 160.374C113.241 160.123 113.579 159.886 113.856 159.665C114.138 159.443 114.361 159.2 114.528 158.936C114.694 158.668 114.802 158.35 114.854 157.984C114.926 157.481 114.879 157.038 114.713 156.654C114.551 156.271 114.291 155.974 113.933 155.766C113.579 155.553 113.155 155.446 112.661 155.446C112.15 155.446 111.664 155.563 111.204 155.798C110.743 156.032 110.354 156.356 110.034 156.769C109.714 157.178 109.506 157.649 109.407 158.182H108.596C108.724 157.5 108.986 156.901 109.382 156.386C109.782 155.866 110.273 155.461 110.852 155.171C111.436 154.877 112.062 154.73 112.731 154.73C113.405 154.73 113.974 154.877 114.438 155.171C114.907 155.461 115.248 155.853 115.461 156.347C115.674 156.842 115.733 157.396 115.64 158.009C115.572 158.469 115.444 158.862 115.256 159.185C115.073 159.509 114.819 159.805 114.496 160.074C114.172 160.342 113.769 160.626 113.287 160.924C112.853 161.192 112.503 161.448 112.239 161.691C111.975 161.934 111.77 162.2 111.626 162.49C111.485 162.78 111.378 163.127 111.306 163.532L111.197 164.184H110.411ZM110.27 168.083C110.074 168.083 109.915 168.017 109.791 167.885C109.667 167.749 109.608 167.585 109.612 167.393C109.621 167.201 109.695 167.041 109.836 166.913C109.981 166.781 110.147 166.715 110.334 166.715C110.526 166.715 110.686 166.781 110.814 166.913C110.946 167.045 111.006 167.205 110.993 167.393C110.984 167.521 110.946 167.638 110.878 167.744C110.814 167.851 110.726 167.934 110.616 167.994C110.509 168.053 110.394 168.083 110.27 168.083ZM119.2 164.184L119.315 163.532C119.405 162.999 119.541 162.55 119.724 162.183C119.912 161.817 120.161 161.495 120.472 161.218C120.783 160.937 121.169 160.656 121.629 160.374C122.03 160.123 122.368 159.886 122.645 159.665C122.927 159.443 123.15 159.2 123.317 158.936C123.483 158.668 123.591 158.35 123.643 157.984C123.715 157.481 123.668 157.038 123.502 156.654C123.34 156.271 123.08 155.974 122.722 155.766C122.368 155.553 121.944 155.446 121.45 155.446C120.939 155.446 120.453 155.563 119.993 155.798C119.532 156.032 119.143 156.356 118.823 156.769C118.503 157.178 118.295 157.649 118.197 158.182H117.385C117.513 157.5 117.775 156.901 118.171 156.386C118.572 155.866 119.062 155.461 119.641 155.171C120.225 154.877 120.851 154.73 121.52 154.73C122.194 154.73 122.763 154.877 123.227 155.171C123.696 155.461 124.037 155.853 124.25 156.347C124.463 156.842 124.523 157.396 124.429 158.009C124.361 158.469 124.233 158.862 124.045 159.185C123.862 159.509 123.608 159.805 123.285 160.074C122.961 160.342 122.558 160.626 122.077 160.924C121.642 161.192 121.292 161.448 121.028 161.691C120.764 161.934 120.559 162.2 120.415 162.49C120.274 162.78 120.167 163.127 120.095 163.532L119.986 164.184H119.2ZM119.059 168.083C118.863 168.083 118.704 168.017 118.58 167.885C118.456 167.749 118.397 167.585 118.401 167.393C118.41 167.201 118.484 167.041 118.625 166.913C118.77 166.781 118.936 166.715 119.123 166.715C119.315 166.715 119.475 166.781 119.603 166.913C119.735 167.045 119.795 167.205 119.782 167.393C119.773 167.521 119.735 167.638 119.667 167.744C119.603 167.851 119.515 167.934 119.405 167.994C119.298 168.053 119.183 168.083 119.059 168.083Z" fill="black"/>
<path d="M66.4434 171.58H124.557V172.807H66.4434V171.58Z" fill="black"/>
<path d="M55.2207 120.909H56.0197L54.4473 130.452C54.3024 131.322 54.0382 132.031 53.6547 132.581C53.2711 133.126 52.8066 133.529 52.2612 133.789C51.7157 134.049 51.1277 134.179 50.497 134.179C49.8578 134.179 49.3017 134.06 48.8287 133.821C48.3599 133.578 48.0126 133.244 47.7868 132.817C47.5652 132.391 47.497 131.899 47.5822 131.341H48.362C48.2981 131.754 48.3514 132.119 48.5218 132.434C48.6923 132.745 48.9544 132.99 49.3081 133.169C49.6618 133.348 50.0794 133.438 50.5609 133.438C51.0382 133.438 51.4877 133.337 51.9096 133.137C52.3358 132.933 52.7022 132.609 53.0091 132.165C53.3159 131.722 53.5311 131.141 53.6547 130.42L55.2207 120.909ZM61.1589 134.205C60.2725 134.205 59.5375 133.985 58.9537 133.546C58.3699 133.107 57.9629 132.506 57.7328 131.744C57.5027 130.981 57.4686 130.112 57.6305 129.136C57.7924 128.156 58.1163 127.282 58.6021 126.515C59.0879 125.748 59.6824 125.143 60.3855 124.7C61.0886 124.256 61.8471 124.035 62.661 124.035C63.2108 124.035 63.7115 124.146 64.1632 124.367C64.6191 124.589 65.0027 124.906 65.3137 125.32C65.6248 125.729 65.84 126.225 65.9593 126.809C66.0787 127.393 66.0787 128.049 65.9593 128.778L65.8699 129.263H58.0971L58.2186 128.554H65.2051C65.3244 127.847 65.2903 127.207 65.1028 126.636C64.9153 126.061 64.6042 125.605 64.1696 125.268C63.7392 124.932 63.2108 124.763 62.5843 124.763C61.9451 124.763 61.3358 124.949 60.7562 125.32C60.1809 125.686 59.6866 126.176 59.2733 126.79C58.8642 127.403 58.5914 128.079 58.4551 128.816L58.3784 129.212C58.242 130.056 58.2591 130.8 58.4295 131.443C58.6042 132.082 58.9281 132.583 59.4011 132.945C59.8741 133.303 60.492 133.482 61.2548 133.482C61.7875 133.482 62.2605 133.393 62.6738 133.214C63.0914 133.031 63.4451 132.809 63.7349 132.549C64.0289 132.289 64.2591 132.038 64.4252 131.795L65.0708 132.082C64.8748 132.411 64.5936 132.739 64.2271 133.067C63.8606 133.391 63.4196 133.661 62.9039 133.879C62.3883 134.096 61.8066 134.205 61.1589 134.205ZM75.2965 126.298L74.5487 126.477C74.4847 126.114 74.3697 125.805 74.2035 125.55C74.0373 125.29 73.8072 125.092 73.5131 124.955C73.2234 124.815 72.859 124.744 72.4201 124.744C71.6829 124.744 71.0543 124.928 70.5344 125.294C70.0146 125.661 69.7077 126.134 69.614 126.713C69.5373 127.173 69.6268 127.553 69.8825 127.851C70.1381 128.149 70.5707 128.377 71.18 128.535L72.6374 128.912C73.3789 129.104 73.9094 129.419 74.229 129.858C74.5529 130.297 74.6616 130.834 74.555 131.469C74.4698 132.01 74.2461 132.487 73.8839 132.901C73.5259 133.31 73.07 133.629 72.516 133.859C71.962 134.089 71.3441 134.205 70.6623 134.205C69.7418 134.205 69.0217 133.989 68.5018 133.559C67.9819 133.124 67.7028 132.504 67.6644 131.699L68.4379 131.545C68.4677 132.18 68.6765 132.664 69.0643 132.996C69.4521 133.325 70.0039 133.489 70.7198 133.489C71.5337 133.489 72.2219 133.295 72.7844 132.907C73.3469 132.519 73.6772 132.025 73.7752 131.424C73.8477 130.977 73.7646 130.602 73.5259 130.299C73.2873 129.996 72.8867 129.775 72.3242 129.634L70.8349 129.251C70.0593 129.05 69.5032 128.731 69.1665 128.292C68.8342 127.849 68.7212 127.308 68.8278 126.668C68.9173 126.148 69.1303 125.69 69.467 125.294C69.8079 124.898 70.2383 124.589 70.7582 124.367C71.2781 124.146 71.8512 124.035 72.4776 124.035C73.3171 124.035 73.967 124.233 74.4272 124.629C74.8874 125.021 75.1772 125.577 75.2965 126.298ZM84.3493 126.298L83.6014 126.477C83.5375 126.114 83.4224 125.805 83.2562 125.55C83.09 125.29 82.8599 125.092 82.5659 124.955C82.2761 124.815 81.9118 124.744 81.4728 124.744C80.7356 124.744 80.1071 124.928 79.5872 125.294C79.0673 125.661 78.7605 126.134 78.6667 126.713C78.59 127.173 78.6795 127.553 78.9352 127.851C79.1909 128.149 79.6234 128.377 80.2328 128.535L81.6902 128.912C82.4316 129.104 82.9622 129.419 83.2818 129.858C83.6056 130.297 83.7143 130.834 83.6078 131.469C83.5226 132.01 83.2988 132.487 82.9366 132.901C82.5787 133.31 82.1227 133.629 81.5687 133.859C81.0147 134.089 80.3968 134.205 79.715 134.205C78.7946 134.205 78.0744 133.989 77.5545 133.559C77.0346 133.124 76.7555 132.504 76.7172 131.699L77.4906 131.545C77.5204 132.18 77.7292 132.664 78.117 132.996C78.5048 133.325 79.0566 133.489 79.7725 133.489C80.5865 133.489 81.2747 133.295 81.8372 132.907C82.3997 132.519 82.7299 132.025 82.8279 131.424C82.9004 130.977 82.8173 130.602 82.5787 130.299C82.34 129.996 81.9395 129.775 81.377 129.634L79.8876 129.251C79.112 129.05 78.5559 128.731 78.2193 128.292C77.8869 127.849 77.774 127.308 77.8805 126.668C77.97 126.148 78.1831 125.69 78.5197 125.294C78.8606 124.898 79.291 124.589 79.8109 124.367C80.3308 124.146 80.9039 124.035 81.5304 124.035C82.3699 124.035 83.0197 124.233 83.4799 124.629C83.9402 125.021 84.2299 125.577 84.3493 126.298ZM85.9233 134L87.5597 124.182H88.3331L86.6967 134H85.9233ZM88.3139 122.437C88.1307 122.437 87.9773 122.375 87.8537 122.251C87.7344 122.124 87.6832 121.968 87.7003 121.785C87.7088 121.631 87.777 121.497 87.9048 121.382C88.0327 121.267 88.1797 121.21 88.3459 121.21C88.5291 121.21 88.6804 121.273 88.7997 121.401C88.919 121.525 88.9723 121.676 88.9595 121.855C88.9467 122.013 88.8764 122.149 88.7486 122.264C88.625 122.379 88.4801 122.437 88.3139 122.437ZM93.6193 134.205C92.7713 134.205 92.0682 133.983 91.5099 133.54C90.9517 133.097 90.5597 132.491 90.3338 131.724C90.1122 130.957 90.0803 130.09 90.2379 129.123C90.3956 128.147 90.7173 127.276 91.2031 126.509C91.6889 125.741 92.2876 125.138 92.9993 124.7C93.7109 124.256 94.478 124.035 95.3004 124.035C95.9268 124.035 96.4744 124.163 96.9432 124.418C97.4119 124.674 97.7763 125.03 98.0362 125.486C98.2962 125.942 98.424 126.47 98.4197 127.071H97.6271C97.6143 126.389 97.3949 125.835 96.9688 125.409C96.5469 124.979 95.9673 124.763 95.2301 124.763C94.5568 124.763 93.924 124.951 93.3317 125.326C92.7436 125.697 92.245 126.208 91.8359 126.86C91.4268 127.512 91.152 128.262 91.0114 129.11C90.875 129.941 90.892 130.687 91.0625 131.347C91.2372 132.004 91.5483 132.523 91.9957 132.907C92.4474 133.29 93.0142 133.482 93.696 133.482C94.1818 133.482 94.6442 133.386 95.0831 133.195C95.522 132.999 95.9077 132.726 96.2401 132.376C96.5724 132.023 96.8196 131.609 96.9815 131.136H97.7741C97.5781 131.746 97.2734 132.281 96.8601 132.741C96.451 133.201 95.9673 133.561 95.4091 133.821C94.8551 134.077 94.2585 134.205 93.6193 134.205ZM102.523 134.211C101.957 134.211 101.456 134.098 101.021 133.872C100.591 133.646 100.269 133.316 100.056 132.881C99.843 132.447 99.7855 131.918 99.8835 131.296C99.956 130.887 100.09 130.527 100.286 130.216C100.482 129.905 100.751 129.636 101.092 129.411C101.433 129.185 101.85 128.999 102.344 128.854C102.843 128.705 103.425 128.59 104.089 128.509C104.601 128.45 105.057 128.39 105.457 128.33C105.858 128.271 106.182 128.179 106.429 128.055C106.676 127.932 106.821 127.746 106.864 127.499L106.928 127.09C107.047 126.379 106.925 125.812 106.563 125.39C106.201 124.964 105.624 124.751 104.831 124.751C104.132 124.751 103.506 124.908 102.952 125.224C102.398 125.535 101.984 125.929 101.712 126.406L101.034 126.131C101.298 125.663 101.633 125.273 102.038 124.962C102.447 124.651 102.894 124.418 103.38 124.265C103.87 124.112 104.369 124.035 104.876 124.035C105.315 124.035 105.724 124.097 106.103 124.22C106.482 124.344 106.806 124.531 107.075 124.783C107.347 125.034 107.541 125.356 107.656 125.748C107.776 126.136 107.788 126.6 107.695 127.141L106.557 134H105.777L106.077 132.229H106.02C105.79 132.596 105.5 132.93 105.151 133.233C104.805 133.531 104.411 133.77 103.968 133.949C103.525 134.124 103.043 134.211 102.523 134.211ZM102.67 133.489C103.284 133.489 103.855 133.339 104.384 133.041C104.916 132.739 105.364 132.325 105.726 131.801C106.092 131.277 106.329 130.683 106.435 130.018L106.685 128.573C106.57 128.658 106.414 128.735 106.218 128.803C106.022 128.867 105.803 128.925 105.56 128.976C105.321 129.023 105.072 129.065 104.812 129.104C104.556 129.138 104.307 129.17 104.064 129.2C103.335 129.285 102.732 129.417 102.255 129.596C101.778 129.771 101.409 130.001 101.149 130.286C100.893 130.572 100.729 130.917 100.657 131.322C100.55 131.991 100.687 132.519 101.066 132.907C101.45 133.295 101.984 133.489 102.67 133.489ZM115.164 134L117.337 120.909H118.136L116.091 133.259H122.483L122.355 134H115.164ZM123.796 137.682C123.6 137.682 123.411 137.661 123.227 137.618C123.048 137.575 122.886 137.52 122.741 137.452L123.08 136.768C123.447 136.921 123.794 136.972 124.122 136.921C124.455 136.874 124.766 136.719 125.055 136.455C125.349 136.19 125.626 135.815 125.886 135.33L126.538 134.102L124.621 124.182H125.42L127.069 133.003H127.139L131.722 124.182H132.598L126.545 135.668C126.306 136.116 126.042 136.489 125.752 136.787C125.462 137.085 125.151 137.309 124.819 137.458C124.491 137.607 124.15 137.682 123.796 137.682ZM135.233 127.634L134.178 134H133.399L135.035 124.182H135.796L135.54 125.735H135.617C135.923 125.228 136.358 124.821 136.921 124.514C137.483 124.207 138.114 124.054 138.813 124.054C139.469 124.054 140.025 124.195 140.481 124.476C140.937 124.757 141.263 125.158 141.459 125.678C141.655 126.193 141.693 126.809 141.574 127.525L140.494 134H139.714L140.788 127.557C140.924 126.722 140.792 126.05 140.392 125.543C139.995 125.032 139.39 124.776 138.576 124.776C138.026 124.776 137.515 124.896 137.042 125.134C136.573 125.373 136.179 125.707 135.86 126.138C135.54 126.564 135.331 127.062 135.233 127.634Z" fill="black"/>
<path d="M47.0645 137.58H142.929V138.807H47.0645V137.58Z" fill="black"/>
<path d="M84.761 46.5349C90.6875 40.2101 100.726 40.2102 106.652 46.5349L124.614 65.7032C133.591 75.2841 126.798 90.9596 113.668 90.9596H77.7451C64.6152 90.9596 57.8218 75.2841 66.7995 65.7032L84.761 46.5349Z" fill="#B9B6B9"/>
<ellipse cx="95.3616" cy="36.6785" rx="24.4896" ry="20.6785" fill="#B9B6B9"/>
</g>
<defs>
<filter id="filter0_d_24_34" x="5" y="0" width="182" height="204" filterUnits="userSpaceOnUse" color-interpolation-filters="sRGB">
<feFlood flood-opacity="0" result="BackgroundImageFix"/>
<feColorMatrix in="SourceAlpha" type="matrix" values="0 0 0 0 0 0 0 0 0 0 0 0 0 0 0 0 0 0 127 0" result="hardAlpha"/>
<feOffset dy="4"/>
<feGaussianBlur stdDeviation="2"/>
<feComposite in2="hardAlpha" operator="out"/>
<feColorMatrix type="matrix" values="0 0 0 0 0 0 0 0 0 0 0 0 0 0 0 0 0 0 0.25 0"/>
<feBlend mode="normal" in2="BackgroundImageFix" result="effect1_dropShadow_24_34"/>
<feBlend mode="normal" in="SourceGraphic" in2="effect1_dropShadow_24_34" result="shape"/>
</filter>
</defs>
</svg>
