<svg width="190" height="196" viewBox="0 0 190 196" fill="none" xmlns="http://www.w3.org/2000/svg">
<rect x="10.5" y="1.5" width="171" height="193" rx="10.5" fill="#D9D9D9" stroke="#CA7D0B" stroke-width="3"/>
<rect x="10.5" y="111.5" width="171" height="83" fill="#D9D9D9" stroke="#CA7D0B" stroke-width="3"/>
<path d="M74.7594 160.298L74.0115 160.477C73.9476 160.114 73.8326 159.805 73.6664 159.55C73.5002 159.29 73.2701 159.092 72.976 158.955C72.6863 158.815 72.3219 158.744 71.883 158.744C71.1458 158.744 70.5172 158.928 69.9973 159.294C69.4775 159.661 69.1706 160.134 69.0769 160.713C69.0002 161.173 69.0897 161.553 69.3453 161.851C69.601 162.149 70.0336 162.377 70.6429 162.535L72.1003 162.912C72.8418 163.104 73.3723 163.419 73.6919 163.858C74.0158 164.297 74.1245 164.834 74.0179 165.469C73.9327 166.01 73.709 166.487 73.3468 166.901C72.9888 167.31 72.5328 167.629 71.9789 167.859C71.4249 168.089 70.807 168.205 70.1252 168.205C69.2047 168.205 68.4846 167.989 67.9647 167.559C67.4448 167.124 67.1657 166.504 67.1273 165.699L67.9007 165.545C67.9306 166.18 68.1394 166.664 68.5272 166.996C68.915 167.325 69.4668 167.489 70.1827 167.489C70.9966 167.489 71.6848 167.295 72.2473 166.907C72.8098 166.519 73.1401 166.025 73.2381 165.424C73.3105 164.977 73.2275 164.602 72.9888 164.299C72.7502 163.996 72.3496 163.775 71.7871 163.634L70.2978 163.251C69.5222 163.05 68.9661 162.731 68.6294 162.292C68.2971 161.849 68.1841 161.308 68.2907 160.668C68.3801 160.148 68.5932 159.69 68.9299 159.294C69.2708 158.898 69.7012 158.589 70.2211 158.367C70.7409 158.146 71.3141 158.035 71.9405 158.035C72.78 158.035 73.4299 158.233 73.8901 158.629C74.3503 159.021 74.6401 159.577 74.7594 160.298ZM81.4023 158.182L81.2809 158.879H76.9982L77.1133 158.182H81.4023ZM78.9478 155.83H79.7212L78.0977 165.68C78.0295 166.08 78.0508 166.408 78.1616 166.664C78.2766 166.915 78.4492 167.103 78.6793 167.227C78.9137 167.346 79.18 167.406 79.4783 167.406C79.6104 167.406 79.7298 167.395 79.8363 167.374C79.9428 167.348 80.0494 167.32 80.1559 167.29L80.2262 168C80.0941 168.047 79.9535 168.085 79.8043 168.115C79.6552 168.145 79.4826 168.16 79.2866 168.16C78.8775 168.16 78.5067 168.068 78.1744 167.885C77.8462 167.702 77.5969 167.435 77.4265 167.086C77.2603 166.737 77.2198 166.315 77.305 165.82L78.9478 155.83ZM85.2344 168.211C84.6676 168.211 84.1669 168.098 83.7322 167.872C83.3018 167.646 82.9801 167.316 82.767 166.881C82.554 166.447 82.4964 165.918 82.5945 165.296C82.6669 164.887 82.8011 164.527 82.9972 164.216C83.1932 163.905 83.4616 163.636 83.8026 163.411C84.1435 163.185 84.5611 162.999 85.0554 162.854C85.554 162.705 86.1357 162.59 86.8004 162.509C87.3118 162.45 87.7678 162.39 88.1683 162.33C88.5689 162.271 88.8928 162.179 89.1399 162.055C89.3871 161.932 89.532 161.746 89.5746 161.499L89.6385 161.09C89.7578 160.379 89.6364 159.812 89.2741 159.39C88.9119 158.964 88.3345 158.751 87.5419 158.751C86.843 158.751 86.2166 158.908 85.6626 159.224C85.1087 159.535 84.6953 159.929 84.4226 160.406L83.745 160.131C84.0092 159.663 84.3438 159.273 84.7486 158.962C85.1577 158.651 85.6051 158.418 86.0909 158.265C86.581 158.112 87.0795 158.035 87.5866 158.035C88.0256 158.035 88.4347 158.097 88.8139 158.22C89.1932 158.344 89.517 158.531 89.7855 158.783C90.0582 159.034 90.2521 159.356 90.3672 159.748C90.4865 160.136 90.4993 160.6 90.4055 161.141L89.2678 168H88.4879L88.7884 166.229H88.7308C88.5007 166.596 88.2109 166.93 87.8615 167.233C87.5163 167.531 87.1222 167.77 86.679 167.949C86.2358 168.124 85.7543 168.211 85.2344 168.211ZM85.3814 167.489C85.995 167.489 86.5661 167.339 87.0945 167.041C87.6271 166.739 88.0746 166.325 88.4368 165.801C88.8033 165.277 89.0398 164.683 89.1463 164.018L89.3956 162.573C89.2805 162.658 89.125 162.735 88.929 162.803C88.733 162.867 88.5135 162.925 88.2706 162.976C88.032 163.023 87.7827 163.065 87.5227 163.104C87.267 163.138 87.0178 163.17 86.7749 163.2C86.0462 163.285 85.4432 163.417 84.9659 163.596C84.4886 163.771 84.12 164.001 83.8601 164.286C83.6044 164.572 83.4403 164.917 83.3679 165.322C83.2614 165.991 83.3977 166.519 83.777 166.907C84.1605 167.295 84.6953 167.489 85.3814 167.489ZM97.6445 158.182L97.5231 158.879H93.2404L93.3555 158.182H97.6445ZM95.19 155.83H95.9634L94.3398 165.68C94.2717 166.08 94.293 166.408 94.4038 166.664C94.5188 166.915 94.6914 167.103 94.9215 167.227C95.1559 167.346 95.4222 167.406 95.7205 167.406C95.8526 167.406 95.9719 167.395 96.0785 167.374C96.185 167.348 96.2915 167.32 96.3981 167.29L96.4684 168C96.3363 168.047 96.1957 168.085 96.0465 168.115C95.8974 168.145 95.7248 168.16 95.5288 168.16C95.1197 168.16 94.7489 168.068 94.4165 167.885C94.0884 167.702 93.8391 167.435 93.6687 167.086C93.5025 166.737 93.462 166.315 93.5472 165.82L95.19 155.83ZM106.242 160.298L105.494 160.477C105.43 160.114 105.315 159.805 105.149 159.55C104.983 159.29 104.752 159.092 104.458 158.955C104.169 158.815 103.804 158.744 103.365 158.744C102.628 158.744 102 158.928 101.48 159.294C100.96 159.661 100.653 160.134 100.559 160.713C100.483 161.173 100.572 161.553 100.828 161.851C101.083 162.149 101.516 162.377 102.125 162.535L103.583 162.912C104.324 163.104 104.855 163.419 105.174 163.858C105.498 164.297 105.607 164.834 105.5 165.469C105.415 166.01 105.191 166.487 104.829 166.901C104.471 167.31 104.015 167.629 103.461 167.859C102.907 168.089 102.289 168.205 101.608 168.205C100.687 168.205 99.967 167.989 99.4471 167.559C98.9272 167.124 98.6481 166.504 98.6097 165.699L99.3832 165.545C99.413 166.18 99.6218 166.664 100.01 166.996C100.397 167.325 100.949 167.489 101.665 167.489C102.479 167.489 103.167 167.295 103.73 166.907C104.292 166.519 104.623 166.025 104.721 165.424C104.793 164.977 104.71 164.602 104.471 164.299C104.233 163.996 103.832 163.775 103.27 163.634L101.78 163.251C101.005 163.05 100.449 162.731 100.112 162.292C99.7795 161.849 99.6665 161.308 99.7731 160.668C99.8626 160.148 100.076 159.69 100.412 159.294C100.753 158.898 101.184 158.589 101.703 158.367C102.223 158.146 102.797 158.035 103.423 158.035C104.262 158.035 104.912 158.233 105.373 158.629C105.833 159.021 106.123 159.577 106.242 160.298ZM110.411 164.184L110.526 163.532C110.616 162.999 110.752 162.55 110.935 162.183C111.123 161.817 111.372 161.495 111.683 161.218C111.994 160.937 112.38 160.656 112.84 160.374C113.241 160.123 113.579 159.886 113.856 159.665C114.138 159.443 114.361 159.2 114.528 158.936C114.694 158.668 114.802 158.35 114.854 157.984C114.926 157.481 114.879 157.038 114.713 156.654C114.551 156.271 114.291 155.974 113.933 155.766C113.579 155.553 113.155 155.446 112.661 155.446C112.15 155.446 111.664 155.563 111.204 155.798C110.743 156.032 110.354 156.356 110.034 156.769C109.714 157.178 109.506 157.649 109.407 158.182H108.596C108.724 157.5 108.986 156.901 109.382 156.386C109.782 155.866 110.273 155.461 110.852 155.171C111.436 154.877 112.062 154.73 112.731 154.73C113.405 154.73 113.974 154.877 114.438 155.171C114.907 155.461 115.248 155.853 115.461 156.347C115.674 156.842 115.733 157.396 115.64 158.009C115.572 158.469 115.444 158.862 115.256 159.185C115.073 159.509 114.819 159.805 114.496 160.074C114.172 160.342 113.769 160.626 113.287 160.924C112.853 161.192 112.503 161.448 112.239 161.691C111.975 161.934 111.77 162.2 111.626 162.49C111.485 162.78 111.378 163.127 111.306 163.532L111.197 164.184H110.411ZM110.27 168.083C110.074 168.083 109.915 168.017 109.791 167.885C109.667 167.749 109.608 167.585 109.612 167.393C109.621 167.201 109.695 167.041 109.836 166.913C109.981 166.781 110.147 166.715 110.334 166.715C110.526 166.715 110.686 166.781 110.814 166.913C110.946 167.045 111.006 167.205 110.993 167.393C110.984 167.521 110.946 167.638 110.878 167.744C110.814 167.851 110.726 167.934 110.616 167.994C110.509 168.053 110.394 168.083 110.27 168.083ZM119.2 164.184L119.315 163.532C119.405 162.999 119.541 162.55 119.724 162.183C119.912 161.817 120.161 161.495 120.472 161.218C120.783 160.937 121.169 160.656 121.629 160.374C122.03 160.123 122.368 159.886 122.645 159.665C122.927 159.443 123.15 159.2 123.317 158.936C123.483 158.668 123.591 158.35 123.643 157.984C123.715 157.481 123.668 157.038 123.502 156.654C123.34 156.271 123.08 155.974 122.722 155.766C122.368 155.553 121.944 155.446 121.45 155.446C120.939 155.446 120.453 155.563 119.993 155.798C119.532 156.032 119.143 156.356 118.823 156.769C118.503 157.178 118.295 157.649 118.197 158.182H117.385C117.513 157.5 117.775 156.901 118.171 156.386C118.572 155.866 119.062 155.461 119.641 155.171C120.225 154.877 120.851 154.73 121.52 154.73C122.194 154.73 122.763 154.877 123.227 155.171C123.696 155.461 124.037 155.853 124.25 156.347C124.463 156.842 124.523 157.396 124.429 158.009C124.361 158.469 124.233 158.862 124.045 159.185C123.862 159.509 123.608 159.805 123.285 160.074C122.961 160.342 122.558 160.626 122.077 160.924C121.642 161.192 121.292 161.448 121.028 161.691C120.764 161.934 120.559 162.2 120.415 162.49C120.274 162.78 120.167 163.127 120.095 163.532L119.986 164.184H119.2ZM119.059 168.083C118.863 168.083 118.704 168.017 118.58 167.885C118.456 167.749 118.397 167.585 118.401 167.393C118.41 167.201 118.484 167.041 118.625 166.913C118.77 166.781 118.936 166.715 119.123 166.715C119.315 166.715 119.475 166.781 119.603 166.913C119.735 167.045 119.795 167.205 119.782 167.393C119.773 167.521 119.735 167.638 119.667 167.744C119.603 167.851 119.515 167.934 119.405 167.994C119.298 168.053 119.183 168.083 119.059 168.083Z" fill="black"/>
<path d="M66.4434 171.58H124.557V172.807H66.4434V171.58Z" fill="black"/>
<path d="M61.2764 121.651L61.4042 120.909H70.5768L70.449 121.651H66.2622L64.2167 134H63.4177L65.4632 121.651H61.2764ZM73.2854 134.205C72.4672 134.205 71.7748 133.985 71.208 133.546C70.6455 133.103 70.2449 132.494 70.0063 131.718C69.7677 130.942 69.7314 130.056 69.8976 129.059C70.0596 128.087 70.3792 127.224 70.8564 126.47C71.338 125.712 71.926 125.117 72.6207 124.687C73.3153 124.252 74.061 124.035 74.8579 124.035C75.6803 124.035 76.3728 124.259 76.9353 124.706C77.502 125.149 77.9047 125.761 78.1434 126.54C78.382 127.316 78.4225 128.2 78.2648 129.193C78.1029 130.161 77.779 131.023 77.2932 131.782C76.8117 132.536 76.2236 133.129 75.529 133.559C74.8344 133.989 74.0866 134.205 73.2854 134.205ZM73.2982 133.482C73.9971 133.482 74.6405 133.286 75.2286 132.894C75.8167 132.502 76.3089 131.972 76.7052 131.303C77.1057 130.634 77.3721 129.886 77.5042 129.059C77.6363 128.258 77.6171 127.533 77.4466 126.886C77.2762 126.234 76.9715 125.718 76.5326 125.339C76.0937 124.955 75.5376 124.763 74.8643 124.763C74.1697 124.763 73.5262 124.962 72.9339 125.358C72.3458 125.754 71.8515 126.287 71.4509 126.956C71.0503 127.625 70.784 128.371 70.6519 129.193C70.5155 129.99 70.5326 130.714 70.703 131.366C70.8778 132.014 71.1846 132.53 71.6235 132.913C72.0667 133.293 72.6249 133.482 73.2982 133.482ZM80.1457 134L81.782 124.182H82.5427L82.287 125.665H82.3637C82.6407 125.175 83.0328 124.785 83.5399 124.495C84.0512 124.201 84.6308 124.054 85.2785 124.054C85.9859 124.054 86.5292 124.224 86.9085 124.565C87.2877 124.906 87.5285 125.369 87.6308 125.952H87.7011C87.9823 125.373 88.3999 124.913 88.9539 124.572C89.5122 124.227 90.1556 124.054 90.8843 124.054C91.8303 124.054 92.5036 124.354 92.9042 124.955C93.309 125.552 93.4241 126.37 93.2494 127.41L92.1499 134H91.3701L92.4695 127.41C92.6017 126.587 92.5164 125.944 92.2139 125.479C91.9113 125.011 91.3808 124.776 90.6222 124.776C89.8126 124.776 89.1436 125.03 88.6151 125.537C88.0867 126.044 87.7586 126.69 87.6308 127.474L86.5377 134H85.7579L86.8637 127.359C86.9873 126.592 86.9042 125.969 86.6144 125.492C86.3247 125.015 85.7941 124.776 85.0228 124.776C84.5072 124.776 84.0363 124.896 83.6102 125.134C83.184 125.373 82.8303 125.701 82.5491 126.119C82.2678 126.536 82.0846 127.016 81.9994 127.557L80.9255 134H80.1457ZM100.723 134L102.897 120.909H110.203L110.075 121.651H103.568L102.673 127.077H108.573L108.445 127.819H102.545L101.522 134H100.723ZM111.034 134L112.67 124.182H113.443L111.807 134H111.034ZM113.424 122.437C113.241 122.437 113.088 122.375 112.964 122.251C112.845 122.124 112.794 121.968 112.811 121.785C112.819 121.631 112.887 121.497 113.015 121.382C113.143 121.267 113.29 121.21 113.456 121.21C113.639 121.21 113.791 121.273 113.91 121.401C114.029 121.525 114.083 121.676 114.07 121.855C114.057 122.013 113.987 122.149 113.859 122.264C113.735 122.379 113.59 122.437 113.424 122.437ZM116.908 127.634L115.853 134H115.073L116.71 124.182H117.47L117.215 125.735H117.291C117.598 125.228 118.033 124.821 118.595 124.514C119.158 124.207 119.789 124.054 120.487 124.054C121.144 124.054 121.7 124.195 122.156 124.476C122.612 124.757 122.938 125.158 123.134 125.678C123.33 126.193 123.368 126.809 123.249 127.525L122.169 134H121.389L122.463 127.557C122.599 126.722 122.467 126.05 122.066 125.543C121.67 125.032 121.065 124.776 120.251 124.776C119.701 124.776 119.19 124.896 118.717 125.134C118.248 125.373 117.854 125.707 117.534 126.138C117.215 126.564 117.006 127.062 116.908 127.634ZM130.517 124.182L130.395 124.879H126.112L126.228 124.182H130.517ZM128.062 121.83H128.835L127.212 131.68C127.144 132.08 127.165 132.408 127.276 132.664C127.391 132.915 127.563 133.103 127.794 133.227C128.028 133.346 128.294 133.406 128.593 133.406C128.725 133.406 128.844 133.395 128.951 133.374C129.057 133.348 129.164 133.32 129.27 133.29L129.34 134C129.208 134.047 129.068 134.085 128.919 134.115C128.769 134.145 128.597 134.16 128.401 134.16C127.992 134.16 127.621 134.068 127.289 133.885C126.96 133.702 126.711 133.435 126.541 133.086C126.375 132.737 126.334 132.315 126.419 131.82L128.062 121.83Z" fill="black"/>
<path d="M59.0264 137.58H130.97V138.807H59.0264V137.58Z" fill="black"/>
<path d="M84.761 46.5349C90.6875 40.2101 100.726 40.2102 106.652 46.5349L124.614 65.7032C133.591 75.2841 126.798 90.9596 113.668 90.9596H77.7451C64.6152 90.9596 57.8218 75.2841 66.7995 65.7032L84.761 46.5349Z" fill="#B9B6B9"/>
<ellipse cx="95.3616" cy="36.6785" rx="24.4896" ry="20.6785" fill="#B9B6B9"/>
</svg>
